# xmcd
#
# Track frame offsets: 
#        150
#        28223
#        46483
#        70055
#        85429
#        105040
#        127952
#        149685
#        168654
#        189321
#        218305
#
# Disc length: 3343 seconds
#
# Revision: 0
# Processed by: cddbd v1.5.2PL0 Copyright (c) Steve Scherf et al.
# Submitted via: ExactAudioCopy v1.2
#
DISCID=940d0d0b
DTITLE=Matthias Bublath - Time and Changes
DYEAR=2016
DGENRE=Jazz
TTITLE0=Seegs
TTITLE1=Cool one
TTITLE2=Sunset
TTITLE3=Punk Funk
TTITLE4=Grindin' the Blues
TTITLE5=Honeyfuckle Rose
TTITLE6=Gold Stripe
TTITLE7=Ragga #2
TTITLE8=Time and Changes
TTITLE9=Ella Latin
TTITLE10=Astoria Days
EXTD=
EXTT0=
EXTT1=
EXTT2=
EXTT3=
EXTT4=
EXTT5=
EXTT6=
EXTT7=
EXTT8=
EXTT9=
EXTT10=
PLAYORDER=
